<?xml version="1.0" encoding="UTF-8"?>
<svg version="1.1" xmlns="http://www.w3.org/2000/svg" width="60" height="60">
<path d="M0 0 C19.8 0 39.6 0 60 0 C60 19.8 60 39.6 60 60 C40.2 60 20.4 60 0 60 C0 40.2 0 20.4 0 0 Z " fill="#FCFCFB" transform="translate(0,0)"/>
<path d="M0 0 C7.92 0 15.84 0 24 0 C24 0.66 24 1.32 24 2 C23.03900391 2.31130859 23.03900391 2.31130859 22.05859375 2.62890625 C13.89891396 5.53526016 8.6654728 9.43845039 4.625 17.1875 C2.64445071 21.41554218 1.86879739 25.07822239 1.9375 29.75 C1.94652344 30.54921875 1.95554688 31.3484375 1.96484375 32.171875 C1.97644531 32.77515625 1.98804687 33.3784375 2 34 C3.98 33.505 3.98 33.505 6 33 C5.87625 31.2984375 5.87625 31.2984375 5.75 29.5625 C5.78724849 22.5349512 8.67950509 17.05922806 13.5 12.0625 C15.82803423 9.82441255 18.00591074 8.23851885 21 7 C23.625 7.0625 23.625 7.0625 26 8 C28.38038888 11.85396294 28.17371424 15.5702869 28 20 C27.43152344 20.08636719 26.86304687 20.17273438 26.27734375 20.26171875 C19.24089059 21.54214178 14.4267116 23.79047821 10.0625 29.5625 C8.08684542 35.95432364 7.75220512 42.41198098 10.6875 48.5 C17.15347246 55.4902405 22.78158981 57.23682007 32 58 C22.44082756 62.77958622 10.68747969 60 0 60 C0 40.2 0 20.4 0 0 Z " fill="#FBFCFC" transform="translate(0,0)"/>
<path d="M0 0 C0.33 0 0.66 0 1 0 C1 1.03125 1 2.0625 1 3.125 C1.3574011 5.70450358 1.72678249 6.74047597 3.63671875 8.5546875 C5.03347635 9.53906905 6.43885676 10.51130235 7.8515625 11.47265625 C11.18110979 13.83966168 13.98497758 16.41513453 16 20 C16.22678988 24.38460435 15.56167916 26.25109445 12.9375 29.75 C6.1981653 34.9120436 -0.61179219 35.92630516 -9 35 C-13.23551706 33.58816098 -16.32305741 31.45150963 -19.08203125 27.87109375 C-20.95937212 24.04451385 -20.72297561 20.11694445 -20 16 C-17.82113826 11.56157794 -15.58565445 8.89407466 -11 7 C-7.67379174 6.47884295 -4.36029301 6.18922038 -1 6 C-0.67 4.02 -0.34 2.04 0 0 Z " fill="#FDFDFD" transform="translate(33,18)"/>
<path d="M0 0 C4.01536847 2.46397611 5.56590878 4.58299905 7 9 C7.30078125 11.7890625 7.30078125 11.7890625 7.3125 14.625 C7.32925781 15.56601562 7.34601562 16.50703125 7.36328125 17.4765625 C7 20 7 20 5.78515625 21.78125 C3.54354075 23.31163082 1.80915231 23.54050078 -0.875 23.875 C-5.65811322 24.69895235 -7.9566121 26.07304787 -11 30 C-12.86581821 33.73163642 -12.55464677 37.93674501 -12 42 C-10.34500841 45.37865504 -8.07150763 47.4741177 -4.66796875 49.14453125 C-1.78633853 50.06850931 0.48190442 50.23412788 3.5 50.1875 C4.4178125 50.18105469 5.335625 50.17460938 6.28125 50.16796875 C8.93865687 50.00378988 11.40626246 49.58734999 14 49 C15.125 52.75 15.125 52.75 14 55 C7.49603778 57.16798741 -1.18286114 57.30781164 -7.5 54.4375 C-11.99115836 51.74280498 -15.65984127 47.68031747 -18 43 C-18.68632698 35.58541837 -18.72001792 29.93027893 -14 24 C-9.1251418 19.1630293 -4.74785287 18.31143936 2 18 C1.34 14.37 0.68 10.74 0 7 C-4.78217566 5.50570481 -4.78217566 5.50570481 -7.9375 7.5 C-13.217038 11.80982694 -17.59649838 16.12284204 -19 23 C-19.13678479 25.69172926 -19.09307455 28.30083814 -19 31 C-20.65 31.33 -22.3 31.66 -24 32 C-25.88561253 28.22877495 -25.41718096 24.54558006 -24.3515625 20.59765625 C-21.22295808 11.92045853 -15.96352605 5.4318102 -7.9140625 0.84765625 C-5.03292919 -0.42827421 -3.08647937 -0.61729587 0 0 Z " fill="#4384F9" transform="translate(26,2)"/>
<path d="M0 0 C6.45235197 2.43755519 10.25085815 8.11569066 13.0859375 14.16796875 C14.75835089 18.52883163 15.06805591 22.37730829 14.8125 27.0625 C14.1525 28.0525 13.4925 29.0425 12.8125 30.0625 C11.4925 29.7325 10.1725 29.4025 8.8125 29.0625 C8.915625 27.78375 9.01875 26.505 9.125 25.1875 C9.125 19.34278265 7.01140547 14.87814958 3.8125 10.0625 C1.22804922 7.4849028 1.22804922 7.4849028 -1.1875 6.0625 C-1.39246094 6.67738281 -1.59742188 7.29226562 -1.80859375 7.92578125 C-2.93489583 11.3046875 -4.06119792 14.68359375 -5.1875 18.0625 C-4.506875 18.248125 -3.82625 18.43375 -3.125 18.625 C2.34862922 21.30358451 7.41642326 26.42467238 9.8125 32.0625 C10.43379399 36.85533939 9.832576 40.27935092 7.22265625 44.4140625 C4.67219747 47.39548523 1.46159081 49.62384408 -2.1875 51.0625 C-3.1775 50.7325 -4.1675 50.4025 -5.1875 50.0625 C-4.5275 50.0625 -3.8675 50.0625 -3.1875 50.0625 C-3.5175 48.7425 -3.8475 47.4225 -4.1875 46.0625 C0.5625 42.0625 0.5625 42.0625 2.8125 42.0625 C3.74913791 38.9672044 4.1684447 36.29038205 3.8125 33.0625 C0.39423761 27.46897973 -4.5500147 23.30405405 -10.1875 20.0625 C-9.90354705 14.09948809 -7.92935102 0.22655289 0 0 Z " fill="#F6AA0D" transform="translate(44.1875,4.9375)"/>
<path d="M0 0 C1.65 0 3.3 0 5 0 C5.01417969 0.58007812 5.02835938 1.16015625 5.04296875 1.7578125 C5.41537089 7.85715559 6.50051188 10.80729516 11 15 C14.61401557 16.78275265 17.48963063 17.24945795 21.5 17.1875 C22.87671875 17.17783203 22.87671875 17.17783203 24.28125 17.16796875 C26.93865687 17.00378988 29.40626246 16.58734999 32 16 C33.125 19.75 33.125 19.75 32 22 C25.49603778 24.16798741 16.81713886 24.30781164 10.5 21.4375 C6.00884164 18.74280498 2.34015873 14.68031747 0 10 C-0.06996014 8.29297265 -0.08440154 6.58331997 -0.0625 4.875 C-0.05347656 3.96492188 -0.04445313 3.05484375 -0.03515625 2.1171875 C-0.02355469 1.41851562 -0.01195312 0.71984375 0 0 Z " fill="#56D240" transform="translate(8,35)"/>
<path d="M0 0 C6.875 3.75 6.875 3.75 8 6 C8.46948018 10.78869784 8.01677558 14.22207955 5.41015625 18.3515625 C2.85969747 21.33298523 -0.35090919 23.56134408 -4 25 C-4.99 24.67 -5.98 24.34 -7 24 C-6.34 24 -5.68 24 -5 24 C-5.33 22.68 -5.66 21.36 -6 20 C-1.25 16 -1.25 16 1 16 C2.0006709 10.03654233 2.0662997 5.71271093 0 0 Z " fill="#B8BD18" transform="translate(46,31)"/>
<path d="M0 0 C1.65 0 3.3 0 5 0 C5.58718592 3.34440677 6.05863115 6.59939315 6 10 C4.0625 12.625 4.0625 12.625 2 14 C0.09391902 10.78817851 -0.22266247 8.46117397 -0.125 4.75 C-0.09792969 3.41195312 -0.09792969 3.41195312 -0.0703125 2.046875 C-0.04710937 1.37140625 -0.02390625 0.6959375 0 0 Z " fill="#41BB89" transform="translate(8,35)"/>
<path d="M0 0 C0.54269531 0.40992188 1.08539063 0.81984375 1.64453125 1.2421875 C2.35996094 1.78101563 3.07539063 2.31984375 3.8125 2.875 C4.52019531 3.40867188 5.22789063 3.94234375 5.95703125 4.4921875 C7.60456297 5.70814781 9.29624211 6.86416141 11 8 C9.35 8 7.7 8 6 8 C6 8.66 6 9.32 6 10 C6.66 10.33 7.32 10.66 8 11 C3.16743695 10.58578031 1.17320782 8.53586014 -2 5 C-1.34 3.35 -0.68 1.7 0 0 Z " fill="#40CC5F" transform="translate(13,45)"/>
<path d="M0 0 C0.66 0.33 1.32 0.66 2 1 C1.566875 1.804375 1.566875 1.804375 1.125 2.625 C-0.11344007 5.06702583 -0.11344007 5.06702583 -0.875 8.125 C-2 11 -2 11 -3.9375 12.4375 C-6 13 -6 13 -9 12 C-8.34 12 -7.68 12 -7 12 C-7.33 10.68 -7.66 9.36 -8 8 C-3.25 4 -3.25 4 -1 4 C-0.67 2.68 -0.34 1.36 0 0 Z " fill="#89C927" transform="translate(48,43)"/>
<path d="M0 0 C1.8125 1.5625 1.8125 1.5625 3 3 C2.67 3.66 2.34 4.32 2 5 C1.01 4.67 0.02 4.34 -1 4 C-1.33 4.66 -1.66 5.32 -2 6 C-3.65 4.02 -5.3 2.04 -7 0 C-4.26634878 -1.36682561 -2.89333621 -0.84683011 0 0 Z " fill="#E0B014" transform="translate(48,29)"/>
<path d="M0 0 C1.65 0 3.3 0 5 0 C4.64950425 3.24208567 4.43778819 4.61527704 1.9375 6.8125 C1.298125 7.204375 0.65875 7.59625 0 8 C0 5.36 0 2.72 0 0 Z " fill="#38A5B0" transform="translate(8,35)"/>
<path d="M0 0 C2.97 0.495 2.97 0.495 6 1 C5.34 2.32 4.68 3.64 4 5 C2.35 5 0.7 5 -1 5 C-0.67 3.35 -0.34 1.7 0 0 Z " fill="#4998D7" transform="translate(9,30)"/>
<path d="M0 0 C1.32 1.32 2.64 2.64 4 4 C3.34 4.66 2.68 5.32 2 6 C-0.125 5.625 -0.125 5.625 -2 5 C-1.34 3.35 -0.68 1.7 0 0 Z " fill="#41C477" transform="translate(13,45)"/>
<path d="M0 0 C0.33 0 0.66 0 1 0 C1.3125 2.8125 1.3125 2.8125 1 6 C-1.5 7.875 -1.5 7.875 -4 9 C-3.34 7.35 -2.68 5.7 -2 4 C-1.34 4 -0.68 4 0 4 C0 2.68 0 1.36 0 0 Z " fill="#5AB9A5" transform="translate(12,36)"/>
</svg>
